<svg xmlns="http://www.w3.org/2000/svg" width="714.9" height="173.6" viewBox="0 0 714.9 173.6">
  <path d="M72.3 15.3H7.4V0H98L26 155h74v15.3H0l72.3-155zM238.7 34l16.1 8.4-43.1 76.6v51.3h-17.1V119l-42.9-76.6 16.1-8.4 35.5 68.4L238.7 34zm99.6 136.3h-17.1v-133h41.4c30.9 0 42.9 16.9 42.9 36.3 0 28.1-19.9 39.6-38.6 39.6h-28.6v57.1zm23.5-72.5c16.9 0 25.8-7.7 25.8-23 0-18.1-11.7-22.2-25.8-22.2h-23.5v45.2h23.5zm104.4-60.5h17.1v55.2H536V37.3h17.1v133H536v-62.6h-52.6v62.6h-17.1v-133zm158.1 0h45.2c22.2 0 39.8 10.5 39.8 36.3 0 16.3-11 32.4-27.1 37.3l32.7 53.9-14.8 8.9-34-60.3h-24.8v56.9h-17.1v-133zm39.6 60.8c16.6 0 27.6-9.4 27.6-24.5 0-12-7.1-20.9-22.5-20.9h-27.6v45.5h22.5z"/>
</svg>
